<?xml version="1.0" encoding="UTF-8"?>
<svg xmlns="http://www.w3.org/2000/svg" xmlns:xlink="http://www.w3.org/1999/xlink" width="480pt" height="480pt" viewBox="0 0 480 480" version="1.1">
<g id="surface1">
<path style=" stroke:none;fill-rule:nonzero;fill:#1976D2;fill-opacity:1;" d="M 450 350 C 450 372.089844 432.089844 390 410 390 L 70 390 C 47.910156 390 30 372.089844 30 350 L 30 130 C 30 107.910156 47.910156 90 70 90 L 410 90 C 432.089844 90 450 107.910156 450 130 Z "/>
<path style=" stroke:none;fill-rule:nonzero;fill:#FFFFFF;fill-opacity:1;" d="M 222.550781 200 L 201.421875 246.828125 L 180.390625 200 L 153.441406 200 L 153.441406 267.261719 L 123.410156 200 L 100.671875 200 L 70 269.808594 L 88.148438 269.808594 L 94.859375 254.230469 L 129.179688 254.230469 L 136 269.808594 L 170.648438 269.808594 L 170.648438 217.960938 L 193.640625 269.808594 L 209.269531 269.808594 L 232.78125 218.859375 L 232.78125 269.808594 L 250 269.808594 L 250 200 Z M 101.351563 239.148438 L 111.609375 214.75 L 122.269531 239.148438 Z "/>
<path style=" stroke:none;fill-rule:nonzero;fill:#FFFFFF;fill-opacity:1;" d="M 378.828125 234.128906 L 410 200.179688 L 387.828125 200.179688 L 367.890625 221.820313 L 348.601563 200 L 280 200 L 280 269.820313 L 346.351563 269.820313 L 367.269531 246.710938 L 387.671875 270 L 409.769531 270 Z M 337.28125 255.160156 L 297.171875 255.160156 L 297.171875 241.351563 L 335.550781 241.351563 L 335.550781 228.121094 L 297.171875 228.121094 L 297.171875 215.039063 L 339.511719 215.160156 L 356.441406 234.128906 Z "/>
</g>
</svg>
