<?xml version="1.0" encoding="UTF-8"?>
<svg xmlns="http://www.w3.org/2000/svg" xmlns:xlink="http://www.w3.org/1999/xlink" width="50pt" height="50pt" viewBox="0 0 50 50" version="1.1">
<g id="surface1">
<path style=" stroke:none;fill-rule:nonzero;fill:#f0dc30;fill-opacity:1;" d="M 25 1 C 19.484375 1 15 5.484375 15 11 L 15 13 L 7.09375 13 L 2.875 50 L 47.125 50 L 42.90625 13 L 37 13 L 37 19 C 37 20.65625 35.65625 22 34 22 C 33.777344 22 33.550781 21.984375 33.34375 21.9375 C 32.003906 21.636719 31 20.433594 31 19 C 31 17.699219 31.839844 16.601563 33 16.1875 L 33 19 C 33 19.550781 33.445313 20 34 20 C 34.554688 20 35 19.550781 35 19 L 35 11 C 35 5.484375 30.515625 1 25 1 Z M 25 3 C 29.410156 3 33 6.589844 33 11 L 33 13 L 19 13 L 19 19 C 19 20.65625 17.65625 22 16 22 C 15.777344 22 15.550781 21.984375 15.34375 21.9375 C 14 21.636719 13 20.433594 13 19 C 13 17.699219 13.839844 16.601563 15 16.1875 L 15 19 C 15 19.550781 15.449219 20 16 20 C 16.550781 20 17 19.550781 17 19 L 17 11 C 17 6.589844 20.589844 3 25 3 Z "/>
</g>
</svg>
