<?xml version="1.0" encoding="UTF-8"?>
<svg xmlns="http://www.w3.org/2000/svg" xmlns:xlink="http://www.w3.org/1999/xlink" width="50pt" height="50pt" viewBox="0 0 50 50" version="1.1">
<g id="surface1">
<path style=" stroke:none;fill-rule:nonzero;fill:#5930f0;fill-opacity:1;" d="M 9.984375 11 C 9.722656 11.003906 9.476563 11.109375 9.292969 11.292969 L 3.292969 17.292969 C 2.902344 17.683594 2.902344 18.316406 3.292969 18.707031 L 24.292969 39.707031 C 24.683594 40.097656 25.316406 40.097656 25.707031 39.707031 L 46.707031 18.707031 C 47.097656 18.316406 47.097656 17.683594 46.707031 17.292969 L 40.707031 11.292969 C 40.316406 10.902344 39.683594 10.902344 39.292969 11.292969 L 25 25.585938 L 10.707031 11.292969 C 10.515625 11.101563 10.253906 10.996094 9.984375 11 Z M 10 13.414063 L 24.292969 27.707031 C 24.683594 28.097656 25.316406 28.097656 25.707031 27.707031 L 40 13.414063 L 44.585938 18 L 25 37.585938 L 5.414063 18 Z "/>
</g>
</svg>
