<?xml version="1.0" encoding="UTF-8"?>
<svg xmlns="http://www.w3.org/2000/svg" xmlns:xlink="http://www.w3.org/1999/xlink" width="500pt" height="500pt" viewBox="0 0 500 500" version="1.1">
<g id="surface1">
<path style=" stroke:none;fill-rule:nonzero;fill:#ff0000;fill-opacity:1;" d="M 210 20 C 193.546875 20 180 33.546875 180 50 L 180 70 L 101.542969 70 C 100.980469 69.90625 100.414063 69.859375 99.84375 69.863281 C 99.359375 69.875 98.875 69.917969 98.398438 70 L 80 70 C 76.394531 69.949219 73.039063 71.84375 71.222656 74.957031 C 69.402344 78.074219 69.402344 81.925781 71.222656 85.042969 C 73.039063 88.15625 76.394531 90.050781 80 90 L 90 90 L 90 450 C 90 466.453125 103.546875 480 120 480 L 380 480 C 396.453125 480 410 466.453125 410 450 L 410 90 L 420 90 C 423.605469 90.050781 426.960938 88.15625 428.777344 85.042969 C 430.597656 81.925781 430.597656 78.074219 428.777344 74.957031 C 426.960938 71.84375 423.605469 69.949219 420 70 L 401.679688 70 C 400.601563 69.820313 399.496094 69.820313 398.417969 70 L 320 70 L 320 50 C 320 33.546875 306.453125 20 290 20 Z M 210 40 L 290 40 C 295.546875 40 300 44.453125 300 50 L 300 70 L 200 70 L 200 50 C 200 44.453125 204.453125 40 210 40 Z M 110 90 L 188.320313 90 C 189.398438 90.179688 190.503906 90.179688 191.582031 90 L 308.320313 90 C 309.398438 90.179688 310.503906 90.179688 311.582031 90 L 390 90 L 390 450 C 390 455.546875 385.546875 460 380 460 L 120 460 C 114.453125 460 110 455.546875 110 450 Z M 189.84375 139.863281 C 184.328125 139.949219 179.925781 144.484375 180 150 L 180 400 C 179.949219 403.605469 181.84375 406.960938 184.957031 408.777344 C 188.074219 410.597656 191.925781 410.597656 195.042969 408.777344 C 198.15625 406.960938 200.050781 403.605469 200 400 L 200 150 C 200.035156 147.296875 198.976563 144.695313 197.066406 142.785156 C 195.152344 140.875 192.546875 139.820313 189.84375 139.863281 Z M 249.84375 139.863281 C 244.328125 139.949219 239.925781 144.484375 240 150 L 240 400 C 239.949219 403.605469 241.84375 406.960938 244.957031 408.777344 C 248.074219 410.597656 251.925781 410.597656 255.042969 408.777344 C 258.15625 406.960938 260.050781 403.605469 260 400 L 260 150 C 260.035156 147.296875 258.976563 144.695313 257.066406 142.785156 C 255.152344 140.875 252.546875 139.820313 249.84375 139.863281 Z M 309.84375 139.863281 C 304.328125 139.949219 299.925781 144.484375 300 150 L 300 400 C 299.949219 403.605469 301.84375 406.960938 304.957031 408.777344 C 308.074219 410.597656 311.925781 410.597656 315.042969 408.777344 C 318.15625 406.960938 320.050781 403.605469 320 400 L 320 150 C 320.035156 147.296875 318.976563 144.695313 317.066406 142.785156 C 315.152344 140.875 312.546875 139.820313 309.84375 139.863281 Z "/>
</g>
</svg>
