<?xml version="1.0" encoding="UTF-8"?>
<svg xmlns="http://www.w3.org/2000/svg" xmlns:xlink="http://www.w3.org/1999/xlink" width="480pt" height="480pt" viewBox="0 0 480 480" version="1.1">
<g id="surface1">
<path style=" stroke:none;fill-rule:nonzero;fill:#1565C0;fill-opacity:1;" d="M 187 137.671875 L 187.050781 137.691406 C 188.089844 133.261719 191.871094 130 196.601563 130 L 331.320313 130 C 331.488281 130 331.660156 129.929688 331.828125 129.941406 C 328.960938 82.148438 288.871094 60 253.5 60 L 118.78125 60 C 114.039063 60 110.261719 63.351563 109.230469 67.769531 L 109.179688 67.75 L 50.289063 338.128906 L 50.421875 338.140625 C 50.28125 338.78125 50.03125 339.390625 50.03125 340.078125 C 50.03125 345.609375 54.5 349.988281 60.03125 349.988281 L 140.738281 349.988281 Z "/>
<path style=" stroke:none;fill-rule:nonzero;fill:#039BE5;fill-opacity:1;" d="M 331.828125 129.941406 C 332.359375 138.699219 331.78125 148.230469 329.539063 158.761719 C 316.730469 218.710938 270.421875 249.910156 213.191406 249.910156 C 213.191406 249.910156 178.488281 249.910156 170.058594 249.910156 C 164.851563 249.910156 162.390625 252.96875 161.261719 255.308594 L 143.859375 335.800781 L 140.808594 350.089844 L 140.75 350.089844 L 128.121094 408.050781 L 128.25 408.058594 C 128.109375 408.699219 127.859375 409.308594 127.859375 410 C 127.859375 415.53125 132.328125 420 137.859375 420 L 211.191406 420 L 211.320313 419.898438 C 216.039063 419.828125 219.789063 416.460938 220.769531 412.019531 L 220.949219 411.871094 L 239.070313 327.710938 C 239.070313 327.710938 240.328125 319.679688 248.769531 319.679688 C 257.210938 319.679688 290.550781 319.679688 290.550781 319.679688 C 347.78125 319.679688 394.558594 288.621094 407.378906 228.660156 C 421.800781 161.058594 373.578125 130.191406 331.828125 129.941406 Z "/>
<path style=" stroke:none;fill-rule:nonzero;fill:#283593;fill-opacity:1;" d="M 196.601563 130 C 191.859375 130 188.078125 133.261719 187.050781 137.691406 L 187 137.671875 L 161.25 255.320313 C 162.378906 252.980469 164.839844 249.921875 170.050781 249.921875 C 178.488281 249.921875 212.398438 249.921875 212.398438 249.921875 C 269.628906 249.921875 316.71875 218.71875 329.53125 158.769531 C 331.78125 148.238281 332.351563 138.710938 331.820313 129.949219 C 331.660156 129.929688 331.480469 130 331.320313 130 Z "/>
</g>
</svg>
