<?xml version="1.0" encoding="UTF-8"?>
<svg xmlns="http://www.w3.org/2000/svg" xmlns:xlink="http://www.w3.org/1999/xlink" width="480pt" height="480pt" viewBox="0 0 480 480" version="1.1">
<g id="surface1">
<path style=" stroke:none;fill-rule:nonzero;fill:#03A9F4;fill-opacity:1;" d="M 417.648438 380 L 62.351563 380 C 44.390625 380 30 366.300781 30 348.480469 L 30 122.28125 C 30 104.449219 44.390625 90 62.351563 90 L 417.640625 90 C 435.601563 90 450 104.449219 450 122.28125 L 450 348.480469 C 450 366.300781 435.601563 380 417.648438 380 Z "/>
<path style=" stroke:none;fill-rule:nonzero;fill:#FFFFFF;fill-opacity:1;" d="M 368.46875 232.769531 C 369.160156 221.761719 372.011719 216.640625 377.730469 216.640625 C 383.210938 216.640625 386.210938 221.910156 386.589844 232.769531 Z M 409.53125 239.351563 C 409.53125 227.050781 406.828125 217.320313 401.71875 210.5 C 396.320313 203.53125 388.261719 200 378.128906 200 C 357.25 200 344.171875 215.460938 344.171875 240.21875 C 344.171875 254.058594 347.621094 264.488281 354.550781 271.070313 C 360.71875 277.019531 369.578125 280 380.851563 280 C 391.320313 280 401.019531 277.488281 407.171875 273.449219 L 404.488281 256.570313 C 398.421875 259.878906 391.390625 261.679688 383.539063 261.679688 C 378.839844 261.679688 375.480469 260.648438 373.101563 258.601563 C 370.480469 256.410156 369.019531 252.878906 368.5 247.839844 L 409.179688 247.839844 C 409.441406 246.691406 409.53125 241.058594 409.53125 239.351563 Z M 310.570313 255.328125 C 308.359375 259.101563 305.261719 261.128906 301.671875 261.128906 C 299.261719 261.128906 296.949219 260.601563 294.980469 259.660156 L 294.980469 222.480469 C 299.261719 218.070313 303.121094 217.570313 304.398438 217.570313 C 310.710938 217.570313 313.808594 224.378906 313.808594 237.738281 C 313.839844 245.339844 312.691406 251.261719 310.570313 255.328125 Z M 331.128906 207.089844 C 326.75 201.378906 320.539063 198.558594 312.679688 198.558594 C 305.558594 198.558594 299.25 201.578125 293.339844 207.921875 L 291.921875 200.078125 L 270 200.078125 L 270 310 L 294.808594 305.839844 L 294.980469 277.851563 C 298.851563 279.058594 302.769531 279.699219 306.289063 279.699219 C 312.558594 279.699219 321.589844 278.128906 328.640625 270.441406 C 335.308594 263.140625 338.601563 251.820313 338.601563 236.828125 C 338.601563 223.578125 336.148438 213.53125 331.128906 207.089844 Z M 235.269531 200.078125 L 260 200.078125 L 260 280 L 235.269531 280 Z M 247.839844 192.328125 C 255.019531 192.328125 260.839844 186.390625 260.839844 179.199219 C 260.839844 171.871094 255 166 247.839844 166 C 240.460938 166 234.609375 171.871094 234.609375 179.199219 C 234.609375 186.398438 240.460938 192.328125 247.839844 192.328125 Z M 224.628906 199 C 217.578125 199 211.839844 202.71875 209.71875 209.308594 L 208.21875 200.101563 L 186.519531 200.101563 L 186.519531 280 L 211.339844 280 L 211.339844 227.5 C 214.460938 223.679688 218.828125 222.300781 224.960938 222.300781 C 226.230469 222.300781 227.519531 222.300781 229.339844 222.558594 L 229.339844 199.621094 C 227.511719 199.210938 226 199 224.628906 199 Z M 176.800781 218.550781 L 179.878906 200.070313 L 163.871094 200.070313 L 163.871094 177.621094 L 142.578125 181.160156 L 139.488281 200.070313 L 132 201.300781 L 129.230469 218.558594 L 139.46875 218.558594 L 139.46875 254.78125 C 139.46875 264.191406 141.851563 270.769531 146.671875 274.761719 C 150.878906 278.109375 156.78125 279.691406 165.101563 279.691406 C 171.640625 279.691406 175.53125 278.570313 178.070313 277.851563 L 178.070313 258.261719 C 176.738281 258.671875 173.269531 259.410156 170.910156 259.410156 C 166.109375 259.410156 163.859375 256.910156 163.859375 251.160156 L 163.859375 218.511719 L 176.800781 218.511719 Z M 105.308594 230.5 C 98.238281 227.851563 94.128906 225.769531 94.128906 222.46875 C 94.128906 219.71875 96.421875 218.128906 100.589844 218.128906 C 107.960938 218.128906 115.679688 220.941406 120.820313 223.570313 L 123.820313 205.28125 C 119.640625 203.261719 111.128906 200 99.398438 200 C 91 200 84.050781 202.199219 79.261719 206.210938 C 73.941406 210.5 71.238281 216.640625 71.238281 224.070313 C 71.238281 237.539063 79.480469 243.25 92.898438 248.089844 C 101.46875 251.171875 104.441406 253.359375 104.441406 256.769531 C 104.441406 259.988281 101.699219 261.910156 96.488281 261.910156 C 90.25 261.910156 80.078125 258.808594 73.21875 254.878906 L 70.398438 273.410156 C 76.160156 276.628906 86.761719 280 97.878906 280 C 106.75 280 114.101563 277.898438 118.898438 273.941406 C 124.578125 269.621094 127.339844 263.171875 127.339844 254.890625 C 127.359375 241.058594 118.910156 235.308594 105.308594 230.5 Z "/>
</g>
</svg>
