<?xml version="1.0" encoding="UTF-8"?>
<svg xmlns="http://www.w3.org/2000/svg" xmlns:xlink="http://www.w3.org/1999/xlink" width="480pt" height="480pt" viewBox="0 0 480 480" version="1.1">
<g id="surface1">
<path style=" stroke:none;fill-rule:nonzero;fill:#1565C0;fill-opacity:1;" d="M 450 350 C 450 372.089844 432.089844 390 410 390 L 70 390 C 47.910156 390 30 372.089844 30 350 L 30 130 C 30 107.910156 47.910156 90 70 90 L 410 90 C 432.089844 90 450 107.910156 450 130 Z "/>
<path style=" stroke:none;fill-rule:nonzero;fill:#FFFFFF;fill-opacity:1;" d="M 151.859375 190 L 125.601563 268.320313 C 125.601563 268.320313 118.929688 235.191406 118.269531 231.03125 C 103.320313 196.921875 81.261719 198.820313 81.261719 198.820313 L 107.261719 300 L 107.261719 299.980469 L 138.871094 299.980469 L 182.578125 190 Z "/>
<path style=" stroke:none;fill-rule:nonzero;fill:#FFFFFF;fill-opacity:1;" d="M 176.890625 300 L 205.601563 300 L 222.960938 190 L 193.890625 190 Z "/>
<path style=" stroke:none;fill-rule:nonzero;fill:#FFFFFF;fill-opacity:1;" d="M 380.078125 190 L 349.871094 190 L 302.769531 300 L 331.289063 300 L 337.171875 284.289063 L 373.128906 284.289063 L 376.191406 300 L 402.320313 300 Z M 345.128906 263.28125 L 360.761719 221.710938 L 368.941406 263.28125 Z "/>
<path style=" stroke:none;fill-rule:nonzero;fill:#FFFFFF;fill-opacity:1;" d="M 263.691406 222.058594 C 263.691406 216 268.671875 211.488281 282.949219 211.488281 C 292.230469 211.488281 302.859375 218.230469 302.859375 218.230469 L 307.519531 195.140625 C 307.519531 195.140625 293.941406 189.988281 280.609375 189.988281 C 250.421875 189.988281 234.851563 204.429688 234.851563 222.710938 C 234.851563 255.769531 274.640625 251.238281 274.640625 268.21875 C 274.640625 271.128906 272.328125 277.859375 255.761719 277.859375 C 239.140625 277.859375 228.171875 271.769531 228.171875 271.769531 L 223.21875 293.929688 C 223.21875 293.929688 233.851563 299.988281 254.390625 299.988281 C 274.980469 299.988281 303.539063 284.589844 303.539063 262.46875 C 303.539063 235.859375 263.691406 233.941406 263.691406 222.058594 Z "/>
<path style=" stroke:none;fill-rule:nonzero;fill:#FFC107;fill-opacity:1;" d="M 122.121094 249.449219 L 112.460938 201.96875 C 112.460938 201.96875 108.089844 191.679688 96.730469 191.679688 C 85.371094 191.679688 52.328125 191.679688 52.328125 191.679688 C 52.328125 191.679688 108.941406 208.398438 122.121094 249.449219 Z "/>
</g>
</svg>
